<?xml version="1.0" encoding="utf-8"?>
<!-- Generator: Adobe Illustrator 22.1.0, SVG Export Plug-In . SVG Version: 6.00 Build 0)  -->
<svg version="1.1" id="Capa_1" xmlns="http://www.w3.org/2000/svg" xmlns:xlink="http://www.w3.org/1999/xlink" x="0px" y="0px"
	 viewBox="0 0 191.0852051 55.0805664" style="enable-background:new 0 0 191.0852051 55.0805664;" xml:space="preserve">
<style type="text/css">
	.st0{fill:#FFFFFF;}
	.st1{fill:none;stroke:#8090A9;stroke-width:7;stroke-miterlimit:10;}
	.st2{fill:none;stroke:#333F50;stroke-width:7;stroke-miterlimit:10;}
	.st3{fill:#333333;}
	.st4{opacity:0.7;fill:url(#SVGID_3_);}
	.st5{clip-path:url(#SVGID_5_);}
	.st6{opacity:0.5;}
	.st7{opacity:0.7;fill:url(#SVGID_8_);}
	.st8{opacity:0.7;fill:url(#SVGID_11_);}
	.st9{opacity:0.7;fill:url(#SVGID_14_);}
	.st10{opacity:0.7;fill:url(#SVGID_17_);}
	.st11{opacity:0.7;fill:url(#SVGID_20_);}
	.st12{fill:#E2E2E2;}
	.st13{opacity:0.55;fill:url(#SVGID_23_);}
	.st14{opacity:0.7;fill:url(#SVGID_24_);}
	.st15{fill:none;}
	.st16{fill:#231F20;}
	.st17{fill:#005BA4;}
	.st18{fill:#585858;}
	.st19{fill:none;stroke:#005BA4;stroke-miterlimit:10;}
	.st20{fill:#0070B9;}
	.st21{fill:#A6B2C3;}
	.st22{fill:#333F50;}
	.st23{fill:#CFD5DE;}
	.st24{fill:#8090A9;}
	.st25{fill:#222A35;}
	.st26{fill:none;stroke:#FFFFFF;stroke-miterlimit:10;}
	.st27{fill:none;stroke:#58595B;stroke-miterlimit:10;}
	.st28{fill:#45A329;}
	.st29{clip-path:url(#SVGID_36_);fill:#333333;}
	.st30{fill:#6E6E6E;}
	.st31{fill:#D9AB16;}
	.st32{fill:#D67219;}
	.st33{opacity:0.75;fill:#717171;}
	.st34{fill:#EE6A00;}
	.st35{fill:none;stroke:#6E6E6E;stroke-miterlimit:10;}
	.st36{fill:#979797;}
	.st37{fill:none;stroke:#979797;stroke-miterlimit:10;}
	.st38{fill:none;stroke:#EE6A00;stroke-miterlimit:10;}
	.st39{fill:none;stroke:#6E6E6E;stroke-width:1.1422495;stroke-linecap:round;stroke-linejoin:round;stroke-miterlimit:10;}
	.st40{fill:#E1E1E1;}
	.st41{fill:#717171;}
	.st42{fill:#374C63;}
	.st43{fill:none;stroke:#717171;stroke-miterlimit:10;}
	.st44{fill:none;stroke:#717171;stroke-width:0.5;stroke-miterlimit:10;}
	.st45{fill:none;stroke:#6E6E6E;stroke-width:0.5;stroke-miterlimit:10;}
	.st46{fill:#215197;}
	.st47{display:none;}
	.st48{filter:url(#Adobe_OpacityMaskFilter);}
	.st49{mask:url(#SVGID_65_);fill:url(#SVGID_66_);}
	.st50{filter:url(#Adobe_OpacityMaskFilter_1_);}
	.st51{mask:url(#SVGID_67_);fill:url(#SVGID_68_);}
	.st52{opacity:0.65;clip-path:url(#SVGID_70_);fill:#959696;}
	.st53{clip-path:url(#SVGID_70_);fill:url(#SVGID_71_);}
	.st54{clip-path:url(#SVGID_70_);fill:url(#SVGID_72_);}
	.st55{opacity:0.65;clip-path:url(#SVGID_74_);fill:#959696;}
	.st56{clip-path:url(#SVGID_74_);fill:url(#SVGID_75_);}
	.st57{clip-path:url(#SVGID_74_);fill:url(#SVGID_76_);}
	.st58{fill:#FFFFFF;stroke:#58595B;stroke-miterlimit:10;}
	.st59{clip-path:url(#SVGID_78_);}
	.st60{fill:#CBCBCC;}
	.st61{clip-path:url(#SVGID_78_);fill:url(#SVGID_79_);}
	.st62{clip-path:url(#SVGID_78_);fill:url(#SVGID_80_);}
	.st63{clip-path:url(#SVGID_82_);}
	.st64{clip-path:url(#SVGID_82_);fill:url(#SVGID_83_);}
	.st65{clip-path:url(#SVGID_82_);fill:url(#SVGID_84_);}
	.st66{filter:url(#Adobe_OpacityMaskFilter_2_);}
	.st67{mask:url(#SVGID_85_);fill:url(#SVGID_86_);}
	.st68{fill:url(#SVGID_87_);}
	.st69{opacity:0.65;clip-path:url(#SVGID_89_);fill:#959696;}
	.st70{clip-path:url(#SVGID_89_);fill:url(#SVGID_90_);}
	.st71{clip-path:url(#SVGID_89_);fill:url(#SVGID_91_);}
	.st72{opacity:0.7;fill:url(#SVGID_94_);}
	.st73{opacity:0.35;fill:#EE6A00;}
	.st74{fill:none;stroke:#6E6E6E;stroke-width:0.652714;stroke-linecap:round;stroke-linejoin:round;stroke-miterlimit:10;}
	.st75{clip-path:url(#SVGID_108_);}
	.st76{fill:#EDEDED;}
	.st77{opacity:0.7;fill:url(#SVGID_113_);}
	.st78{opacity:0.7;fill:url(#SVGID_116_);}
	.st79{opacity:0.7;fill:url(#SVGID_119_);}
	.st80{opacity:0.7;fill:url(#SVGID_122_);}
	.st81{opacity:0.7;fill:url(#SVGID_125_);}
	.st82{opacity:0.7;fill:url(#SVGID_128_);}
	.st83{fill:#0094DD;}
	.st84{filter:url(#Adobe_OpacityMaskFilter_3_);}
	.st85{mask:url(#SVGID_129_);fill:url(#SVGID_130_);}
	.st86{opacity:0.65;clip-path:url(#SVGID_132_);fill:#959696;}
	.st87{clip-path:url(#SVGID_132_);fill:url(#SVGID_133_);}
	.st88{clip-path:url(#SVGID_132_);fill:url(#SVGID_134_);}
	.st89{fill:url(#SVGID_135_);}
	.st90{fill:#0099B2;}
	.st91{opacity:0.55;fill:url(#SVGID_138_);}
	.st92{opacity:0.7;fill:url(#SVGID_139_);}
	.st93{fill:url(#SVGID_144_);}
	.st94{fill:url(#SVGID_147_);}
	.st95{opacity:0.55;fill:url(#SVGID_150_);}
	.st96{opacity:0.7;fill:url(#SVGID_151_);}
	.st97{fill:url(#SVGID_156_);}
	.st98{opacity:0.25;fill:#005BA4;}
	.st99{fill:none;stroke:#979797;stroke-width:0.5;stroke-miterlimit:10;}
	.st100{fill:none;stroke:#005BA4;stroke-width:0.5;stroke-miterlimit:10;}
	.st101{fill:none;stroke:#005BA4;stroke-width:0.4986561;stroke-miterlimit:10;}
	.st102{fill:url(#SVGID_159_);}
	.st103{fill:url(#SVGID_162_);}
	.st104{fill:url(#SVGID_165_);}
	.st105{fill:url(#SVGID_168_);}
	.st106{fill:url(#SVGID_169_);stroke:#FFFFFF;stroke-width:2;stroke-miterlimit:10;}
	.st107{fill:#44874D;stroke:#FFFFFF;stroke-width:2;stroke-miterlimit:10;}
	.st108{fill:#4760A7;stroke:#FFFFFF;stroke-width:2;stroke-miterlimit:10;}
	.st109{fill:url(#SVGID_170_);stroke:#FFFFFF;stroke-width:2;stroke-miterlimit:10;}
	.st110{fill:#2F4074;stroke:#FFFFFF;stroke-width:2;stroke-miterlimit:10;}
	.st111{fill:#FFBCFF;stroke:#FFFFFF;stroke-width:2;stroke-miterlimit:10;}
	.st112{fill:url(#SVGID_171_);stroke:#FFFFFF;stroke-width:2;stroke-miterlimit:10;}
	.st113{fill:#C680A6;stroke:#FFFFFF;stroke-width:2;stroke-miterlimit:10;}
	.st114{fill:#FF6B6C;stroke:#FFFFFF;stroke-width:2;stroke-miterlimit:10;}
	.st115{fill:url(#SVGID_172_);stroke:#FFFFFF;stroke-width:2;stroke-miterlimit:10;}
	.st116{fill:#C54748;stroke:#FFFFFF;stroke-width:2;stroke-miterlimit:10;}
	.st117{fill:#BFFF8B;stroke:#FFFFFF;stroke-width:2;stroke-miterlimit:10;}
	.st118{fill:url(#SVGID_173_);stroke:#FFFFFF;stroke-width:2;stroke-miterlimit:10;}
	.st119{fill:#80B061;stroke:#FFFFFF;stroke-width:2;stroke-miterlimit:10;}
	.st120{fill:#FFFF00;stroke:#FFFFFF;stroke-width:2;stroke-miterlimit:10;}
	.st121{fill:url(#SVGID_174_);stroke:#FFFFFF;stroke-width:2;stroke-miterlimit:10;}
	.st122{fill:#F6CD00;stroke:#FFFFFF;stroke-width:2;stroke-miterlimit:10;}
	.st123{fill:#94FFFF;stroke:#FFFFFF;stroke-width:2;stroke-miterlimit:10;}
	.st124{fill:url(#SVGID_175_);stroke:#FFFFFF;stroke-width:2;stroke-miterlimit:10;}
	.st125{fill:#67B0D5;stroke:#FFFFFF;stroke-width:2;stroke-miterlimit:10;}
	.st126{fill:none;stroke:#333333;stroke-width:2;stroke-miterlimit:10;}
	.st127{enable-background:new    ;}
	.st128{fill:#B0B13F;stroke:#FFFFFF;stroke-width:2;stroke-miterlimit:10;}
	.st129{fill:#0D87C8;stroke:#FFFFFF;stroke-miterlimit:10;stroke-opacity:0;}
	.st130{fill:#04CB15;stroke:#FFFFFF;stroke-miterlimit:10;stroke-opacity:0;}
	.st131{fill:#FF0F00;stroke:#FFFFFF;stroke-miterlimit:10;stroke-opacity:0;}
	.st132{fill:#FF6600;stroke:#FFFFFF;stroke-miterlimit:10;stroke-opacity:0;}
	.st133{fill:#FF9701;stroke:#FFFFFF;stroke-miterlimit:10;stroke-opacity:0;}
	.st134{fill:#F5CB02;stroke:#FFFFFF;stroke-miterlimit:10;stroke-opacity:0;}
	.st135{fill:#F1FF01;stroke:#FFFFFF;stroke-miterlimit:10;stroke-opacity:0;}
	.st136{fill:#A9D709;stroke:#FFFFFF;stroke-miterlimit:10;stroke-opacity:0;}
	.st137{fill:url(#SVGID_176_);stroke:#FFFFFF;stroke-width:2;stroke-miterlimit:10;}
	.st138{fill:url(#SVGID_177_);stroke:#FFFFFF;stroke-width:2;stroke-miterlimit:10;}
	.st139{fill:url(#SVGID_178_);stroke:#FFFFFF;stroke-width:2;stroke-miterlimit:10;}
	.st140{fill:url(#SVGID_179_);stroke:#FFFFFF;stroke-width:2;stroke-miterlimit:10;}
	.st141{fill:url(#SVGID_180_);stroke:#FFFFFF;stroke-width:2;stroke-miterlimit:10;}
	.st142{fill:url(#SVGID_181_);stroke:#FFFFFF;stroke-width:2;stroke-miterlimit:10;}
	.st143{fill:url(#SVGID_182_);stroke:#FFFFFF;stroke-width:2;stroke-miterlimit:10;}
	.st144{opacity:0.7;fill:url(#SVGID_185_);}
	.st145{opacity:0.75;fill:#7E3186;}
	.st146{opacity:0.7;fill:url(#SVGID_188_);}
	.st147{clip-path:url(#SVGID_190_);}
	.st148{opacity:0.7;fill:url(#SVGID_191_);}
	.st149{opacity:0.7;fill:url(#SVGID_194_);}
	.st150{clip-path:url(#SVGID_196_);}
	.st151{opacity:0.7;fill:url(#SVGID_197_);}
	.st152{opacity:0.75;fill:#A3C505;}
	.st153{clip-path:url(#SVGID_199_);}
	.st154{opacity:0.7;fill:url(#SVGID_200_);}
	.st155{clip-path:url(#SVGID_202_);}
	.st156{opacity:0.7;fill:url(#SVGID_203_);}
	.st157{clip-path:url(#SVGID_205_);}
	.st158{opacity:0.7;fill:url(#SVGID_206_);}
	.st159{opacity:0.75;fill:#EB8F00;}
	.st160{opacity:0.7;fill:url(#SVGID_207_);}
	.st161{opacity:0.7;fill:url(#SVGID_208_);}
	.st162{opacity:0.7;fill:url(#SVGID_209_);}
	.st163{clip-path:url(#SVGID_211_);}
	.st164{opacity:0.7;fill:url(#SVGID_212_);}
	.st165{opacity:0.7;fill:url(#SVGID_213_);}
	.st166{opacity:0.75;fill:#005BA4;}
	.st167{opacity:0.7;fill:url(#SVGID_214_);}
	.st168{opacity:0.7;fill:url(#SVGID_215_);}
	.st169{opacity:0.7;fill:url(#SVGID_216_);}
	.st170{fill:#E0364A;}
	.st171{fill:#EB8F00;}
	.st172{fill:#F4BF00;}
	.st173{fill:#009B3F;}
	.st174{fill:#A3C505;}
	.st175{fill:#7E3186;}
	.st176{fill:#DE317D;}
	.st177{fill:none;stroke:#717171;stroke-width:1.5333815;}
	.st178{clip-path:url(#SVGID_218_);}
	.st179{opacity:0.7;clip-path:url(#SVGID_218_);fill:url(#SVGID_221_);}
	.st180{opacity:0.7;fill:url(#SVGID_224_);}
	.st181{fill:#FFE4C5;}
	.st182{fill:url(#SVGID_227_);}
	.st183{opacity:0.7;fill:url(#SVGID_230_);}
	.st184{opacity:0.7;fill:url(#SVGID_235_);}
	.st185{opacity:0.7;fill:url(#SVGID_236_);}
	.st186{opacity:0.7;fill:url(#SVGID_239_);}
	.st187{opacity:0.7;fill:url(#SVGID_242_);}
	.st188{opacity:0.7;fill:url(#SVGID_245_);}
	.st189{clip-path:url(#SVGID_247_);}
	.st190{opacity:0.7;fill:url(#SVGID_250_);}
	.st191{opacity:0.7;fill:url(#SVGID_253_);}
	.st192{opacity:0.7;fill:url(#SVGID_256_);}
	.st193{opacity:0.7;fill:url(#SVGID_259_);}
	.st194{fill:url(#SVGID_262_);}
	.st195{fill:none;stroke:#0070B9;stroke-width:4;stroke-miterlimit:10;}
	.st196{fill:none;stroke:#333F50;stroke-width:4;stroke-miterlimit:10;}
	.st197{fill:none;stroke:#8090A9;stroke-width:4;stroke-miterlimit:10;}
	.st198{opacity:0.7;fill:url(#SVGID_265_);}
	.st199{opacity:0.7;fill:url(#SVGID_268_);}
	.st200{opacity:0.7;fill:url(#SVGID_271_);}
	.st201{fill:url(#SVGID_274_);}
	.st202{clip-path:url(#SVGID_276_);}
	.st203{opacity:0.7;fill:url(#SVGID_279_);}
	.st204{fill:none;stroke:#005BA4;stroke-width:7.6938481;stroke-miterlimit:10;}
	.st205{opacity:0.7;fill:url(#SVGID_282_);}
	.st206{opacity:0.7;fill:url(#SVGID_285_);}
	.st207{opacity:0.7;fill:url(#SVGID_288_);}
	.st208{fill:url(#SVGID_289_);}
	.st209{opacity:0.65;clip-path:url(#SVGID_291_);fill:#959696;}
	.st210{clip-path:url(#SVGID_291_);fill:url(#SVGID_292_);}
	.st211{clip-path:url(#SVGID_291_);fill:url(#SVGID_293_);}
	.st212{opacity:0.9;}
	.st213{fill:url(#SVGID_298_);}
	.st214{opacity:0.65;clip-path:url(#SVGID_300_);fill:#959696;}
	.st215{clip-path:url(#SVGID_300_);fill:url(#SVGID_301_);}
	.st216{clip-path:url(#SVGID_300_);fill:url(#SVGID_302_);}
	.st217{fill:url(#SVGID_303_);}
	.st218{opacity:0.65;clip-path:url(#SVGID_305_);fill:#959696;}
	.st219{clip-path:url(#SVGID_305_);fill:url(#SVGID_306_);}
	.st220{clip-path:url(#SVGID_305_);fill:url(#SVGID_307_);}
	.st221{fill:url(#SVGID_308_);}
	.st222{opacity:0.65;clip-path:url(#SVGID_310_);fill:#959696;}
	.st223{clip-path:url(#SVGID_310_);fill:url(#SVGID_311_);}
	.st224{clip-path:url(#SVGID_310_);fill:url(#SVGID_312_);}
	.st225{fill:url(#SVGID_313_);}
	.st226{opacity:0.65;clip-path:url(#SVGID_315_);fill:#959696;}
	.st227{clip-path:url(#SVGID_315_);fill:url(#SVGID_316_);}
	.st228{clip-path:url(#SVGID_315_);fill:url(#SVGID_317_);}
	.st229{fill:url(#SVGID_318_);}
	.st230{opacity:0.65;clip-path:url(#SVGID_320_);fill:#959696;}
	.st231{clip-path:url(#SVGID_320_);fill:url(#SVGID_321_);}
	.st232{clip-path:url(#SVGID_320_);fill:url(#SVGID_322_);}
	.st233{fill:url(#SVGID_323_);}
	.st234{opacity:0.65;clip-path:url(#SVGID_325_);fill:#959696;}
	.st235{clip-path:url(#SVGID_325_);fill:url(#SVGID_326_);}
	.st236{clip-path:url(#SVGID_325_);fill:url(#SVGID_327_);}
	.st237{fill:url(#SVGID_328_);}
	.st238{opacity:0.65;clip-path:url(#SVGID_330_);fill:#959696;}
	.st239{clip-path:url(#SVGID_330_);fill:url(#SVGID_331_);}
	.st240{clip-path:url(#SVGID_330_);fill:url(#SVGID_332_);}
	.st241{opacity:0.7;fill:url(#SVGID_335_);}
	.st242{opacity:0.7;fill:url(#SVGID_338_);}
	.st243{opacity:0.7;fill:url(#SVGID_341_);}
	.st244{fill:url(#SVGID_344_);}
	.st245{clip-path:url(#SVGID_346_);}
	.st246{opacity:0.7;fill:url(#SVGID_349_);}
	.st247{fill:url(#SVGID_350_);}
	.st248{opacity:0.65;clip-path:url(#SVGID_352_);fill:#959696;}
	.st249{clip-path:url(#SVGID_352_);fill:url(#SVGID_353_);}
	.st250{clip-path:url(#SVGID_352_);fill:url(#SVGID_354_);}
	.st251{fill:url(#SVGID_355_);}
	.st252{opacity:0.65;clip-path:url(#SVGID_357_);fill:#959696;}
	.st253{clip-path:url(#SVGID_357_);fill:url(#SVGID_358_);}
	.st254{clip-path:url(#SVGID_357_);fill:url(#SVGID_359_);}
	.st255{fill:url(#SVGID_360_);}
	.st256{opacity:0.65;clip-path:url(#SVGID_362_);fill:#959696;}
	.st257{clip-path:url(#SVGID_362_);fill:url(#SVGID_363_);}
	.st258{clip-path:url(#SVGID_362_);fill:url(#SVGID_364_);}
	.st259{fill:url(#SVGID_365_);}
	.st260{opacity:0.65;clip-path:url(#SVGID_367_);fill:#959696;}
	.st261{clip-path:url(#SVGID_367_);fill:url(#SVGID_368_);}
	.st262{clip-path:url(#SVGID_367_);fill:url(#SVGID_369_);}
	.st263{fill:none;stroke:#005BA4;stroke-width:10.4914446;stroke-miterlimit:10;}
	.st264{fill:none;stroke:#005BA4;stroke-width:7;stroke-miterlimit:10;}
	.st265{opacity:0.7;fill:url(#SVGID_374_);}
	.st266{opacity:0.7;fill:url(#SVGID_377_);}
	.st267{opacity:0.7;fill:url(#SVGID_380_);}
	.st268{fill:url(#SVGID_383_);}
	.st269{clip-path:url(#SVGID_385_);}
	.st270{opacity:0.7;fill:url(#SVGID_388_);}
	.st271{fill:url(#SVGID_389_);}
	.st272{opacity:0.65;clip-path:url(#SVGID_391_);fill:#959696;}
	.st273{clip-path:url(#SVGID_391_);fill:url(#SVGID_392_);}
	.st274{clip-path:url(#SVGID_391_);fill:url(#SVGID_393_);}
	.st275{fill:none;stroke:#717171;stroke-width:0.499875;stroke-miterlimit:10;}
	.st276{clip-path:url(#SVGID_395_);}
	.st277{opacity:0.7;fill:url(#SVGID_398_);}
	.st278{fill:url(#SVGID_399_);}
	.st279{opacity:0.65;clip-path:url(#SVGID_401_);fill:#959696;}
	.st280{clip-path:url(#SVGID_401_);fill:url(#SVGID_402_);}
	.st281{clip-path:url(#SVGID_401_);fill:url(#SVGID_403_);}
	.st282{fill:url(#SVGID_406_);}
	.st283{fill:#9E9E9E;}
	.st284{clip-path:url(#SVGID_408_);}
	.st285{opacity:0.7;fill:url(#SVGID_411_);}
	.st286{fill:url(#SVGID_412_);}
	.st287{opacity:0.65;clip-path:url(#SVGID_414_);fill:#959696;}
	.st288{clip-path:url(#SVGID_414_);fill:url(#SVGID_415_);}
	.st289{clip-path:url(#SVGID_414_);fill:url(#SVGID_416_);}
	.st290{fill:none;stroke:#8090A9;stroke-width:7.4084849;stroke-miterlimit:10;}
	.st291{fill:url(#SVGID_419_);}
	.st292{clip-path:url(#SVGID_421_);}
	.st293{opacity:0.7;fill:url(#SVGID_424_);}
	.st294{fill:url(#SVGID_425_);}
	.st295{opacity:0.65;clip-path:url(#SVGID_427_);fill:#959696;}
	.st296{clip-path:url(#SVGID_427_);fill:url(#SVGID_428_);}
	.st297{clip-path:url(#SVGID_427_);fill:url(#SVGID_429_);}
	.st298{fill:url(#SVGID_432_);}
	.st299{opacity:0.75;fill:#5B5B5B;}
	.st300{fill:#7C7C7C;}
	.st301{fill:url(#SVGID_433_);}
	.st302{fill:#F9F9F9;}
	.st303{fill:url(#SVGID_434_);}
	.st304{opacity:0.65;clip-path:url(#SVGID_438_);fill:#959696;}
	.st305{clip-path:url(#SVGID_438_);fill:url(#SVGID_439_);}
	.st306{clip-path:url(#SVGID_438_);fill:url(#SVGID_440_);}
</style>
<g>
	<g>
		<g>
			<g>
				<g>
					<g>
						<g>
							<path class="st0" d="M22.657217,6.9550591h-0.0972004l-0.0307999,0.0106997
								c-0.2835999,0.1338-0.6591015,0.1504002-1.0185013,0.1504002H12.202116l-0.2432003-0.0317001
								c-0.2132998-0.0219998-0.4125996-0.0425-0.5970993-0.1191001l-0.0240002-0.0102997H11.139616l-0.8949995,3.0482998h0.3021994
								l0.0356998-0.0361004c0.6206007-0.5809994,1.5766001-0.8998995,2.6928005-0.8998995c0,0,1.6934004,0,1.9267998,0
								c0,0.2616997,0,10.2997999,0,10.2997999l0.0024004,0.3101006c0.0019999,0.1152,0.0019999,0.2367992,0.0019999,0.3617992
								c0,0.9540997-0.0854998,2.0800991-0.9468002,2.4105949l-0.0879002,0.0337048v0.2910004h4.9018993v-0.2768002
								l-0.0658989-0.0375996c-1.1338005-0.6620998-1.1543007-1.4824009-1.1543007-2.7129002c0-0.025404,0-10.4180002,0-10.6796999
								c0.2363014,0,1.9731007,0,1.9731007,0c0.7329006,0,1.607399,0.0957003,1.8892002,0.8500996l0.0301991,0.0859003h0.266201
								l0.8211994-3.0482998H22.657217z"/>
							<path class="st0" d="M26.1020164,14.6879587c0-3.5453997,2.3920994-6.0185003,5.8120003-6.0185003
								c3.7271004,0,5.7406998,3.3916006,5.7406998,6.5791006c0,3.5024004-2.3403015,5.9540949-5.6933002,5.9540949
								C28.3437157,21.2026539,26.1020164,17.8217583,26.1020164,14.6879587z M25.6127167,9.2035589
								c-1.5741997,1.5380955-2.4414005,3.5610952-2.4414005,5.6953001c0,4.7050991,3.7271004,8.2535,8.6714001,8.2535
								c4.9019012,0,8.7456017-3.6758003,8.7456017-8.3702002c0-2.1113005-0.8379021-4.1084003-2.358902-5.6205997
								c-1.5942001-1.5835004-3.7797012-2.4560003-6.1533012-2.4462004
								C29.6113167,6.6576543,27.3139153,7.5448589,25.6127167,9.2035589z"/>
							<path class="st0" d="M47.548317,7.116159h-4.6235008v0.2958999l0.0877991,0.0337
								c0.9937019,0.3667002,0.9780998,1.7578001,0.9659004,2.7729998L43.976017,10.522459v8.8237l0.0024986,0.3062
								c0.0121994,1.0254002,0.0278015,2.4222946-0.9659004,2.7972946l-0.0877991,0.0337048v0.2910004h4.7578011v-0.2910004
								l-0.0860023-0.0337048c-0.9940987-0.375-0.9813995-1.7714958-0.9687004-2.7904949l0.0044022-0.3129997v-8.8237
								l-0.0044022-0.3037004c-0.0126991-1.0209999-0.0253983-2.4247999,0.966301-2.7729998l0.0884018-0.0331998V7.116159H47.548317
								z M50.4775162,7.116159h-0.1352997v0.2870998l0.0782013,0.0356998c0.346199,0.1592002,0.5458984,0.3486004,0.608799,0.595696
								c0.1431007,0.5547047-0.4300995,1.3266039-0.9375,2.0005045l-0.3320007,0.4618998l0.0009995-0.0049l-3.1254997,4.1474953
								l5.2554016,7.078104c0.4598999,0.6235008,1.5887985,1.0566006,2.7392006,1.0566006h2.3329964v-0.2840996
								l-0.0751991-0.0372009c-1.2373009-0.6044044-2.0873985-1.2709999-2.7586975-2.1605988
								c0,0-4.1080017-5.3984013-4.6557999-6.1172009c0.1225967-0.1587,5.4769974-7.0376043,5.4769974-7.0376043
								L54.6767159,7.116159H50.4775162z"/>
							<path class="st0" d="M62.4047165,7.116159h-4.5770988v0.2958999l0.0844994,0.0337
								c0.9857979,0.3604002,0.9652977,1.6836004,0.9472008,2.7451v0.3559999v8.8203001v0.3101006
								c0.0098,1.0228996,0.0282974,2.4208984-0.9433022,2.7723942l-0.088398,0.0308056v0.2938995h4.713398v-0.2910004
								l-0.0888977-0.0337048c-0.9736023-0.3700943-0.9604034-1.7572956-0.9453011-2.7723942l0.0028992-0.3101006v-8.8203001
								l-0.0028992-0.3109999c-0.0151024-1.0186005-0.0283012-2.4253001,0.9453011-2.7901001l0.0888977-0.0366001V7.116159
								H62.4047165z"/>
							<path class="st0" d="M67.8203125,14.6879587c0-3.5453997,2.3911057-6.0185003,5.8120041-6.0185003
								c3.7265015,0,5.7397003,3.3916006,5.7397003,6.5791006c0,3.5024004-2.3447037,5.9540949-5.6942978,5.9540949
								C70.0590134,21.2026539,67.8203125,17.8217583,67.8203125,14.6879587z M67.3281174,9.2035589
								c-1.5723038,1.5380955-2.4413986,3.5610952-2.4413986,5.6953001c0,4.7050991,3.7269974,8.2535,8.6717987,8.2535
								c4.9039001,0,8.7426987-3.6758003,8.7426987-8.3702002c0-2.1113005-0.8345032-4.1084003-2.3569031-5.6205997
								c-1.5966949-1.5835004-3.7792969-2.4560003-6.1508942-2.4462004
								C71.3242188,6.6576543,69.0312195,7.5448589,67.3281174,9.2035589z"/>
							<path class="st0" d="M105.8344193,7.116159h-4.1797028v0.1538c0,0.4672999-0.1542969,0.9164996-0.3417969,1.4063001
								c0,0.0038996-3.5419998,9.043395-3.7651062,9.6137991c-0.239296-0.5639992-4.2695007-10.0156994-4.2695007-10.0156994
								c0-0.0004997-0.069397-0.1561995-0.069397-0.1561995c-0.1230011-0.2764006-0.248497-0.5567002-0.248497-0.8482003V7.1376543
								L92.8261185,7.116159H88.599617v0.2823l0.0682983,0.039c0.9003983,0.4882998,0.7871017,1.2193003,0.6851044,1.8653002
								l-0.0259018,0.1712999l-1.3330002,9.8051996c0-0.0034008-0.0205002,0.1205997-0.0205002,0.1205997
								c-0.1768036,1.2173004-0.3345032,2.2675991-1.2451019,3.0741997l-0.0507965,0.040596v0.2597046h4.0848999v-0.2856007
								l-0.0810013-0.0356998c-0.626503-0.2835999-0.8041992-0.75-0.8041992-1.4095993
								c0-0.3705997,0.0541992-0.8052006,0.1200943-1.3008041c0,0,1.1685028-8.7924957,1.2847061-9.678196
								c0.3480988,0.8334999,4.2518997,10.1049995,4.2518997,10.1049995
								c0.5839996,1.3568993,0.9356003,1.9960003,2.1026001,2.8827991l0.1420975,0.1069012
								c0,0,4.7490005-12.1519003,5.1122971-13.0781002c0.1113052,0.9668007,1.2695007,10.7523994,1.2695007,10.7523994
								c-0.0028992,0.7984009-0.1493988,1.3871956-0.8671951,1.6128006l-0.0937042,0.0303001v0.2978001h4.7793045v-0.2700005
								l-0.0547028-0.0415001c-0.8827972-0.6182041-0.9971008-1.2118988-1.1367035-2.2910004l-1.5439987-11.4887991
								c0-0.2348003,0.0458984-1.0629997,0.6278992-1.2357998l0.0996017-0.0288v-0.3023H105.8344193z"/>
							<path class="st0" d="M116.803215,9.6025591c0.2128983,0.5492992,1.9726028,5.0731993,2.0996017,5.3978996
								c-0.342804,0-3.875,0-4.2188034,0C114.8110199,14.6757584,116.5883179,10.1503592,116.803215,9.6025591z
								 M118.3501129,7.116159h-3.8300934v0.2997999l0.0917969,0.0313001c0.2871017,0.0883956,0.4707031,0.2226,0.5586014,0.4056997
								c0.1815948,0.3858004-0.0489044,0.9653997-0.2481003,1.4820004l-0.0419998,0.1093998l-3.9111023,9.7582951
								l-0.1240005,0.3325043c-0.4532013,1.1909008-0.8798981,2.3213005-2.0791016,2.9218998l-0.074295,0.0351009v0.2821999
								h4.5712967v-0.2910004l-0.0858994-0.0337048c-0.3721008-0.138195-0.5927963-0.3070946-0.6894989-0.5253944
								c-0.0458984-0.0971012-0.0692978-0.211401-0.0692978-0.3383007c0-0.3603992,0.1660004-0.8257008,0.3710938-1.3745995
								c0,0,0.9981003-2.711401,1.1836014-3.2143002c0.1758041,0,5.5371017,0,5.7108994,0
								c0.0645065,0.1644993,1.2325058,3.2143002,1.2325058,3.2143002l0.1083984,0.2817993
								c0.2411957,0.6196003,0.3856964,0.9902,0.3856964,1.2509995c0,0.3173008-0.2226944,0.4672012-0.7538986,0.7089005
								l-0.0811005,0.0356998v0.2856007h5.0673981v-0.2821999l-0.077095-0.0351009
								c-1.172905-0.6005993-1.6182022-1.7250996-2.0938034-2.9151001l-0.1337967-0.339304L118.4379196,7.116159H118.3501129z"/>
							<path class="st0" d="M126.9692154,7.116159h-0.1387024v0.2958999l0.0899048,0.0337
								c0.9804001,0.3604002,0.9628983,1.6836004,0.9452972,2.7451l-0.0019989,0.3559999v8.8203001l0.0019989,0.3472004
								c0.0156021,1.0082951,0.0351028,2.3842945-0.9433975,2.7352943l-0.0918045,0.0308056v0.2938995h4.7372971v-0.2938995
								l-0.0868988-0.0308056c-0.8847961-0.3158951-0.9706879-1.4530945-0.9706879-2.4154949
								c0-0.125,0.0019989-0.2416992,0.0019989-0.3568993l0.0009003-0.3101006c0,0,0-10.1395998,0-10.3690996
								c0.5654907-0.0933008,1.0292969-0.1485004,1.4638977-0.1656008c0.839798-0.0360994,1.6347961,0.2378006,2.1718903,0.7496004
								c0.4638062,0.4462004,0.710907,1.0380001,0.710907,1.7118998c0,2.2812004-2.4687042,2.9980001-3.9355011,3.2176962
								l-0.2050934,0.0279036l2.2655945,3.4712009c0.0077972,0.0155983,2.8632965,3.5448952,2.8632965,3.5448952
								c0.7100067,0.8813038,1.5010071,1.2187042,2.8164062,1.2187042h2.6112976l-0.3896027-0.2441006
								c-1.4501953-0.9189987-2.8544922-2.1327991-3.7577972-3.2476044c0,0-2.655304-3.3353949-3.2451019-4.0829992
								c1.835907-0.4994955,3.6278992-2.0541954,3.6278992-4.1810961c0-2.3710995-1.9541016-3.9023995-4.976593-3.9023995
								H126.9692154z"/>
							<path class="st0" d="M146.7690125,7.116159h-4.5751953v0.2958999l0.0858917,0.0337
								c0.9844055,0.3604002,0.9629059,1.6836004,0.9473114,2.7451l-0.0059052,0.3559999v8.8203001l0.0059052,0.3101006
								c0.0097961,1.0228996,0.0263977,2.4208984-0.9473114,2.7723942l-0.0858917,0.0308056v0.2938995h4.7089996v-0.2910004
								l-0.0830078-0.0337048c-0.9755859-0.3700943-0.9579926-1.7572956-0.948288-2.7723942l0.0019989-0.3101006v-8.8203001
								l-0.0019989-0.3109999c-0.0097046-1.0186005-0.027298-2.4253001,0.948288-2.7901001l0.0830078-0.0366001V7.116159
								H146.7690125z"/>
							<path class="st0" d="M166.1020203,7.116159h-4.2519073v0.2817998l0.0644073,0.0395002
								c1.1308899,0.6366997,1.1483917,1.4521952,1.1483917,2.6826c0,0.0254002,0,7.9316988,0,8.6269999
								c-0.4471893-0.5640011-8.3241882-10.5038996-8.3241882-10.5038996l-0.3222046-0.4663005
								c-0.1641083-0.1806998-0.25-0.2876-0.3321075-0.5513l-0.031189-0.0879045l-0.0996094-0.0214953h-3.5449982v0.2817998
								l0.0664978,0.0360999c1.152298,0.6635957,1.152298,1.5249,1.152298,2.8335004v9.3363991
								c0,1.3042011,0,2.1690006-1.1767883,2.8560009l-0.0664062,0.0375996v0.2768002h4.4073029v-0.2768002l-0.0664062-0.0375996
								c-1.1289978-0.6620998-1.1503906-1.4824009-1.1503906-2.714901c0-0.0234032,0-8.1074038,0-8.8119993
								c0.4491882,0.5669003,7.7890015,9.8735952,7.7890015,9.8735952c0.9941864,1.2919998,1.7284851,2.1230011,3.4726868,2.7119045
								l0.1797028,0.0599995V10.2675591c0-1.3086004,0-2.1699047,1.148407-2.8335004l0.0683899-0.0360999V7.116159H166.1020203z"/>
							<path class="st0" d="M177.9848175,7.002459h-0.1015015l-0.0332031,0.0170999
								c-0.2148895,0.1113-0.5039978,0.1044002-0.8144989,0.0999999l-0.2207031-0.0023999h-7.6210938v0.2948999l0.0917969,0.0337
								c0.9940948,0.3667002,0.9766083,1.7714996,0.964798,2.7901001l-0.0018921,0.3109999v8.8231993l0.0018921,0.3037014
								c0.0118103,1.0244999,0.0292969,2.4228954-0.964798,2.7758942l-0.0917969,0.0308056v0.2943993h9.9882965l1.1426086-3.3295994
								h-0.3067017l-0.0371094,0.0361996c-1.1190948,0.9804001-2.6991882,1.4862995-4.2285004,1.3491001
								c0,0-2.628891-0.2534008-2.851593-0.2709999c0-0.2299995,0-5.0419998,0-5.2934999c0.2285004,0,1.6699982,0,1.6699982,0
								c0.7010956-0.0024042,1.5702972-0.0024042,1.8945007,0.5865002l0.0390015,0.0702991h0.2832947v-2.7446995h-0.2382965
								l-0.0254059,0.0131998c-0.253891,0.1280003-0.6192017,0.1280003-0.9687958,0.1280003c0,0-2.4140015,0-2.6542969,0
								c0-0.2481003,0-3.8872995,0-4.1021004c0.7304993-0.125,1.5077972-0.1489,2.253891-0.1489
								c0.996109,0,1.9532013,0.0682964,2.660202,0.8896008l0.0410004,0.0453997h0.2637024V7.002459H177.9848175z"/>
						</g>
					</g>
				</g>
			</g>
		</g>
	</g>
	<g>
		<g>
			<path class="st0" d="M68.9960327,34.4942551c-0.3522339-0.1900902-0.9015732-0.3664398-1.7795486-0.3664398
				c-1.3038559,0-2.468605,0.5638428-3.280201,1.7971802c-0.7209129,1.1079483-1.1626701,2.8365135-1.1626701,4.1933136
				c0,1.657135,0.7569313,2.5365791,1.830513,2.5365791c0.4794006,0,0.8128128-0.0809784,0.9889832-0.1761627l0.7077484-3.4492645
				h-1.4691238l0.3550568-1.7143631h4.1096115l-1.2605209,6.1034584c-1.2962646,0.9323349-2.2115784,1.2162933-3.8546677,1.1886253
				c-2.6276283-0.0332985-4.2472687-1.7391853-4.2472687-4.50457c0-1.9765015,0.7422752-4.2619019,2.0607872-5.76408
				c1.2357254-1.4089203,2.9468193-2.206192,4.9726524-2.206192c1.376358,0,2.4345398,0.2855797,3.1388321,0.7043228
				L68.9960327,34.4942551z"/>
			<path class="st0" d="M78.0267258,42.5011292c-0.8816833,1.3029633-2.222908,2.1092033-4.0192032,2.1092033
				c-2.2546082,0-3.4193344-1.4412117-3.4193344-3.5045357c0-1.3912964,0.5104752-3.1200142,1.288002-4.2509766
				c0.8981476-1.3194313,2.2540359-2.093811,3.9967957-2.093811c2.2589569,0,3.4399948,1.4326744,3.4399948,3.4900322
				C79.3129807,39.6418762,78.7860413,41.37286,78.0267258,42.5011292z M75.6473312,36.4687958
				c-0.7383881,0-1.2696381,0.5641479-1.6398087,1.4123802c-0.4039307,0.8990326-0.7587051,2.5174789-0.7587051,3.491684
				c0,0.8077049,0.2471695,1.373661,1.0206909,1.373661c0.7606354,0,1.250351-0.5243912,1.6259155-1.373661
				c0.3834534-0.9032288,0.7742538-2.5401917,0.7742538-3.5091591
				C76.6696777,37.0520744,76.4015732,36.4687958,75.6473312,36.4687958z"/>
			<path class="st0" d="M87.8783112,42.5011292c-0.8852921,1.3029633-2.2220459,2.1092033-4.0201187,2.1092033
				c-2.2553406,0-3.4224854-1.4412117-3.4224854-3.5045357c0-1.3912964,0.5116959-3.1200142,1.2889481-4.2509766
				c0.8961868-1.3194313,2.2546158-2.093811,3.9972229-2.093811c2.2601547,0,3.4401169,1.4326744,3.4401169,3.4900322
				C89.1619949,39.6418762,88.6343231,41.37286,87.8783112,42.5011292z M85.496376,36.4687958
				c-0.7425766,0-1.2722015,0.5641479-1.6381836,1.4123802c-0.4064713,0.8990326-0.7618332,2.5174789-0.7618332,3.491684
				c0,0.8077049,0.2486725,1.373661,1.0248566,1.373661c0.7561646,0,1.2518845-0.5243912,1.6230698-1.373661
				c0.3842163-0.9032288,0.7744064-2.5401917,0.7744064-3.5091591C86.518692,37.0520744,86.2516632,36.4687958,85.496376,36.4687958
				z"/>
			<path class="st0" d="M112.3362274,34.4787064c-0.2146072-0.1401749-0.672348-0.2991676-1.2199097-0.2991676
				c-0.8618164,0-1.5511703,0.4372597-2.0979691,1.1275024c-0.934021,1.1617546-1.5162277,3.2053719-1.5162277,4.703968
				c0,1.4500237,0.5116653,2.3656464,1.7454605,2.3656464c0.635704,0,1.2536621-0.1960907,1.5537186-0.3721313l0.2434616,1.9044838
				c-0.5808868,0.4052773-1.5655518,0.7013245-2.6763535,0.7013245c-2.6287918,0-3.8105927-1.9554443-3.8105927-4.4192734
				c0-2.3273582,0.9710846-5.096817,2.680397-6.6482964c0.9538498-0.8809471,2.1858368-1.4104233,3.5976105-1.4104233
				c1.0939255,0,2.0093994,0.2987404,2.4847641,0.7043228L112.3362274,34.4787064z"/>
			<path class="st0" d="M120.3036423,42.5011292c-0.8809433,1.3029633-2.2236633,2.1092033-4.0189209,2.1092033
				c-2.2547302,0-3.4188995-1.4412117-3.4188995-3.5045357c0-1.3912964,0.510498-3.1200142,1.2840195-4.2509766
				c0.8981171-1.3194313,2.256691-2.093811,4.0008087-2.093811c2.2601471,0,3.4419174,1.4326744,3.4419174,3.4900322
				C121.5925674,39.6418762,121.0613174,41.37286,120.3036423,42.5011292z M117.9261856,36.4687958
				c-0.7416611,0-1.2696381,0.5641479-1.6414642,1.4123802c-0.4051208,0.8990326-0.7561646,2.5174789-0.7561646,3.491684
				c0,0.8077049,0.2428513,1.373661,1.0179977,1.373661c0.7597504,0,1.2539673-0.5243912,1.6232224-1.373661
				c0.3874893-0.9032288,0.775444-2.5401917,0.775444-3.5091591
				C118.9452209,37.0520744,118.6821976,36.4687958,117.9261856,36.4687958z"/>
			<path class="st0" d="M146.248642,42.5011292c-0.9698792,1.3358345-2.3456268,2.0818443-3.9842377,2.0818443
				c-0.5805969,0-1.1067657-0.0935326-1.3747101-0.1802063l-0.792923,3.8253746h-2.7527161l2.6481018-12.7601433
				c0.9870605-0.425602,2.2209778-0.7069893,3.6807098-0.7069893c2.4182587,0,3.9125061,1.2337685,3.9125061,3.523056
				C147.5853729,39.6926804,147.0585938,41.37286,146.248642,42.5011292z M143.412262,36.380497
				c-0.3529816,0-0.6530609,0.0729027-0.8981476,0.162426l-1.3053589,6.2748795
				c0.155838,0.0657425,0.3685303,0.1022224,0.6851654,0.1022224c0.9727325,0,1.7281342-0.5266571,2.2401428-1.5471649
				c0.4403687-0.8824501,0.7743683-2.3118439,0.7743683-3.2999725C144.908432,36.9810982,144.469986,36.380497,143.412262,36.380497
				z"/>
			<path class="st0" d="M171.7675629,48.3678551h-2.9094543l2.3108063-3.7925034l-1.1293335-9.4973907h2.8575897l0.1557312,5.517334
				c0.0209351,0.8273277-0.0838318,1.4621468-0.0838318,1.4621468h0.033783c0,0,0.1560059-0.6523247,0.5460358-1.4621468
				l2.5898285-5.517334h2.6618195L171.7675629,48.3678551z"/>
			<path class="st0" d="M154.7728729,34.8954926c-2.0308838,0-3.5084229,0.7068634-4.5132599,1.9207649
				c-0.9339905,1.1472473-1.5020294,2.8875008-1.4975281,4.3883324c0.0041656,1.9883118,1.0121613,3.0541191,2.0861969,3.3624077
				c1.1565094,0.3298035,2.0355072-0.2181892,2.7459412-1.0158882c0.223114-0.2503204,0.1672363-0.2132607,0.3846893-0.5426331
				l0.0220947,0.0073128l-0.26091,1.5600204h2.5044708l1.8557587-8.9734535
				C157.4142456,35.1978111,156.1487732,34.8954926,154.7728729,34.8954926z M152.0455933,42.7825165
				c-0.355545-0.2663002-0.5704193-0.7169952-0.5704193-1.5901985c0-1.0415955,0.3368378-2.3967133,0.8294067-3.2965126
				c0.5092773-0.9172478,1.1963959-1.4068108,2.027298-1.4068108c0.4054413,0,0.6668091,0.0881424,0.8095245,0.1556892
				l-0.9650879,4.7447624C153.6982574,42.3374825,152.8416443,43.3865738,152.0455933,42.7825165z"/>
			<path class="st0" d="M137.0318756,37.990406l-1.3564606,6.5849457h-2.7507629l1.392334-6.6795464
				c0.0164337-0.1229744,0.0345306-0.2271538,0.0345306-0.3520851c0-0.5493393-0.3348846-0.9354858-1.1456299-0.9354858
				c-0.4947968,0-0.9870453,0.2131042-1.3211975,0.4985313l-1.5529785,7.468586h-2.7471848l1.3896713-6.6986771
				c0.0197144-0.1175842,0.0351105-0.2265396,0.0351105-0.3329544c0-0.5807076-0.4200592-0.9354858-1.2490158-0.9354858
				c-0.4423676,0-0.8108826,0.0739708-1.1637039,0.1989021l-1.6060257,7.7682152h-2.7497177l1.8687439-8.9679184
				c1.1300735-0.4544601,2.4158707-0.707016,4.0026398-0.707016c1.2511139,0,2.2738953,0.4217453,2.7115784,0.9511871
				c0.6357422-0.4925308,1.8360596-0.9511871,3.4056244-0.9511871c1.9199982,0,2.8731384,0.9878235,2.8731384,2.3983955
				C137.1025696,37.5237045,137.08284,37.7590904,137.0318756,37.990406z"/>
			<path class="st0" d="M168.1554413,38.0531769l-1.3552704,6.5221748h-2.7340393l1.3566437-6.6421776
				c0.0364532-0.142868,0.0525818-0.2645226,0.0525818-0.3894539c0-0.5269051-0.3320465-0.9354858-1.1982117-0.9354858
				c-0.4371033,0-0.8615112,0.0866737-1.1943054,0.1989021l-1.6263733,7.7682152h-2.7473297l1.866684-8.9679184
				c1.0276947-0.4255981,2.4681396-0.707016,4.0916748-0.707016c2.5549774,0,3.5767059,0.9667358,3.5767059,2.3983955
				C168.2442017,37.5437202,168.2072906,37.7903061,168.1554413,38.0531769z"/>
			<path class="st0" d="M98.1324768,30.7114506l-0.9353638,4.3849049l-0.0034256,0.0276375
				c-0.3410034-0.0899811-1.0314331-0.1996422-1.5531311-0.1996422c-1.6022873,0-3.0127106,0.6748505-3.9653931,1.9455605
				c-0.8636246,1.126461-1.3987656,2.8640251-1.3987656,4.2881889c0,1.7140884,0.8483505,2.8413162,1.8765106,3.3014412
				c1.3116302,0.5780449,2.8363953-0.1793175,3.4166718-1.1920853l0.1370239-0.2444763l0.0387115,0.0068588l-0.267952,1.5428505
				h2.5307693l2.8774872-13.8612385H98.1324768z M93.8269348,42.8309326
				c-0.4386063-0.1742363-0.7465897-0.6987839-0.755249-1.6677513c-0.0059967-1.0208168,0.3541641-2.428421,0.8489609-3.3154907
				c0.4940338-0.8825989,1.1805801-1.3877106,2.1310349-1.3877106c0.2818375,0,0.6089554,0.0845947,0.8380661,0.1557198
				l-0.934021,4.6129456C95.4580841,42.1668243,94.7019119,43.1775093,93.8269348,42.8309326z"/>
		</g>
		<g>
			<path class="st0" d="M17.6019135,34.3912544h-2.195756l-2.0669098,10.0273247h-1.4745398l2.083374-10.0273247h-2.1792917
				l0.2084541-0.9942169h5.8183393L17.6019135,34.3912544z"/>
			<path class="st0" d="M22.7236729,42.6602669c-0.7360001,1.1672897-1.8288593,1.9171829-3.300827,1.9171829
				c-1.8442535,0-2.6613884-1.1849174-2.6613884-2.914402c0-1.3279381,0.4511547-3.0281029,1.1363182-4.1353149
				c0.7379589-1.1828384,1.8450184-1.9032936,3.3033981-1.9032936c1.8433666,0,2.6590023,1.1713333,2.6590023,2.9021606
				C23.8601761,39.8368835,23.4096012,41.5528984,22.7236729,42.6602669z M21.1041851,36.522007
				c-0.9939117,0-1.6813393,0.6724625-2.1304131,1.5876579c-0.4792519,0.9607353-0.8492718,2.6110115-0.8492718,3.6856308
				c0,1.004715,0.3362312,1.8054123,1.4250507,1.8054123c1.0066433,0,1.6516228-0.6526299,2.0998116-1.5528564
				c0.480442-0.9622383,0.8667469-2.6567383,0.8667469-3.7469025C22.5161095,37.2913055,22.1786823,36.522007,21.1041851,36.522007z
				"/>
			<path class="st0" d="M33.9632454,38.5736732v0.0294418c1.0886993,0.1938248,2.0182152,1.0920944,2.0182152,2.3252792
				c0,0.8164024-0.4153137,1.7792473-0.9625397,2.370575c-0.8473396,0.9138489-2.1803627,1.2784805-3.698822,1.2784805
				c-1.2348366,0-2.307066-0.2358131-2.9361935-0.6054039l2.0858841-10.1265488
				c0.7691765-0.3698654,1.8874378-0.6106071,3.0278263-0.6106071c2.0825768,0,3.2059212,0.9156227,3.2059212,2.2449074
				C36.703537,37.0351677,35.416851,38.3009491,33.9632454,38.5736732z M31.6053734,38.9876099h-0.8022003l-0.9138165,4.4049225
				c0.4035015,0.1625748,0.8029327,0.2588272,1.4776611,0.2588272c0.9622669,0,1.856802-0.2721405,2.4512806-0.9141235
				c0.480751-0.5110779,0.7211876-1.2819061,0.7211876-1.9881592
				C34.5394859,39.5160446,33.5778618,38.9876099,31.6053734,38.9876099z M33.3536797,34.1013603
				c-0.6569176,0-1.1836967,0.112812-1.5901985,0.2408943l-0.8124828,3.9090805h0.8005466
				c1.282795,0,2.1308746-0.2423935,2.6932182-0.7521591c0.5284042-0.4797096,0.8132477-1.2505074,0.8132477-1.9679604
				C35.2580109,34.5532494,34.5705833,34.1013603,33.3536797,34.1013603z"/>
			<path class="st0" d="M44.4085503,40.2458916h-5.4399338c-0.3925781,1.9520187,0.0141983,3.3261108,1.9156837,3.3261108
				c0.946106,0,1.7616234-0.2878151,2.2438393-0.5309448l0.173378,0.9309883
				c-0.590744,0.3208656-1.5684052,0.6054039-2.6728935,0.6054039c-1.8787727,0-3.1243591-0.9767418-3.1243591-3.0907516
				c0-1.2931099,0.4629707-2.8835831,1.168026-3.9589653c0.8326836-1.2443886,2.0370102-1.9032936,3.3493996-1.9032936
				c1.6335373,0,2.6292534,0.930439,2.6292534,2.7709579C44.6509438,38.845787,44.5361748,39.698513,44.4085503,40.2458916z
				 M41.878521,36.522007c-0.8493958,0-1.6687927,0.4974594-2.2620811,1.5232315
				c-0.2721138,0.4966049-0.4063187,0.6887779-0.5479889,1.4250832l4.1880798,0.0282173
				c0.0800934-0.4007797,0.1273155-0.989872,0.1273155-1.2959251C43.3838463,37.0351677,42.8238907,36.522007,41.878521,36.522007z"
				/>
			<path class="st0" d="M53.5565758,35.6244392c-1.5523987,0-2.7552528,0.658905-3.6061478,1.7457657
				c-0.8309059,1.0746498-1.3758965,2.7371674-1.3758965,4.1164932c0,1.8608437,1.1548653,3.0076599,2.2632713,3.0659332
				c1.0084229,0.0470695,1.7876053-0.4814873,2.3609962-1.1357384l-0.1666107,0.9988708h1.3634987
				c0,0,0.1743889-0.8549652,0.4329147-2.2314758c0.1515274-0.8087463,0.15168-0.8086243,1.2282562-5.9502792
				C55.609436,35.927372,54.6307373,35.6244392,53.5565758,35.6244392z M53.4694443,42.0735588
				c-0.3752556,0.5741577-1.2829514,1.7486115-2.2888298,1.4944038c-1.0664139-0.272419-1.1980782-1.4914055-1.1964226-2.0465889
				c0.0040359-1.1387367,0.3691292-2.5975761,0.9785423-3.558033c0.5940208-0.9438744,1.4406013-1.4884071,2.4514084-1.4884071
				c0.5740013,0,0.9604568,0.1310539,1.1532402,0.2411728C54.5673828,36.7161064,53.8152542,40.3907166,53.4694443,42.0735588z"/>
		</g>
	</g>
	<g>
		<rect x="3.0425987" y="27.0414333" class="st0" width="185" height="1"/>
	</g>
</g>
</svg>
