<?xml version="1.0" encoding="utf-8"?>
<!-- Generator: Adobe Illustrator 22.1.0, SVG Export Plug-In . SVG Version: 6.00 Build 0)  -->
<svg version="1.1" id="Capa_1" xmlns="http://www.w3.org/2000/svg" xmlns:xlink="http://www.w3.org/1999/xlink" x="0px" y="0px"
	 viewBox="0 0 29 31" style="enable-background:new 0 0 29 31;" xml:space="preserve">
<style type="text/css">
	.st0{opacity:0.15;fill:#0E419B;}
	.st1{fill:#FFFFFF;}
	.st2{clip-path:url(#SVGID_2_);}
	.st3{fill:none;}
	.st4{fill:#231F20;}
	.st5{fill:none;stroke:#585858;stroke-width:0.5;stroke-miterlimit:10;}
	.st6{clip-path:url(#SVGID_6_);}
	.st7{opacity:0.15;fill:#0E419B;stroke:#666666;stroke-miterlimit:10;}
	.st8{clip-path:url(#SVGID_12_);}
	.st9{clip-path:url(#SVGID_16_);}
	.st10{clip-path:url(#SVGID_18_);}
	.st11{clip-path:url(#SVGID_20_);}
	.st12{clip-path:url(#SVGID_22_);}
	.st13{clip-path:url(#SVGID_24_);}
	.st14{clip-path:url(#SVGID_26_);}
	.st15{clip-path:url(#SVGID_28_);}
	.st16{clip-path:url(#SVGID_30_);}
	.st17{fill:none;stroke:#4C4C4C;stroke-width:0.5;stroke-miterlimit:10;}
	.st18{fill:#FF1C1C;}
	.st19{fill:#005B8A;}
	.st20{fill:#585858;}
	.st21{fill:url(#SVGID_31_);}
	.st22{opacity:0.65;clip-path:url(#SVGID_33_);fill:#808080;}
	.st23{clip-path:url(#SVGID_33_);fill:url(#SVGID_34_);}
	.st24{clip-path:url(#SVGID_33_);fill:url(#SVGID_35_);}
	.st25{fill:none;stroke:#005B8A;stroke-width:0.4986561;stroke-miterlimit:10;}
</style>
<g id="L42PTj.tif_8_">
	<g>
		<path class="st18" d="M18.8894863,18.5131569c-0.0002422,2.3362617-0.0200748,4.6727772,0.0100555,7.0086498
			c0.0111942,0.8679523-0.3375149,1.2307644-1.2006664,1.2202339c-1.9296522-0.0235462-3.8599072-0.0218563-5.7896442-0.0027828
			c-0.8140364,0.0080433-1.1614494-0.3419819-1.1591539-1.1577644c0.0133324-4.7401981,0.0142717-9.4804764-0.0016251-14.2206564
			c-0.0019884-0.5932474,0.1563025-0.8419237,0.7992811-0.8325129c2.1664696,0.0317039,4.3341398,0.0329142,6.5004387-0.0056019
			c0.6821918-0.0121269,0.8619976,0.2326746,0.853653,0.8802252C18.8712845,13.7726765,18.8897305,16.1430359,18.8894863,18.5131569
			z M11.5376425,19.6433773c0,0.9110832,0.0195198,1.8227406-0.0073357,2.7330322
			c-0.0160427,0.5436249,0.1465092,0.8068027,0.7408638,0.7910614c1.1464739-0.0303612,2.2946997-0.0259972,3.4414501-0.001297
			c0.574872,0.0123863,0.7697573-0.2314243,0.7641172-0.7845974c-0.018219-1.7882328-0.0230331-3.5769863,0.0017567-5.3650551
			c0.0083313-0.6007996-0.1838799-0.853756-0.8139124-0.8330364c-1.1123381,0.036581-2.2279606,0.0408058-3.3398399-0.0024052
			c-0.6427736-0.0249786-0.8191729,0.2371273-0.7959709,0.8306255
			C11.5630159,17.8877068,11.5376177,18.7660389,11.5376425,19.6433773z"/>
		<path class="st18" d="M6.3582015,5.6641402c0.3401532-0.8470612,0.8823314-1.24822,1.6695085-1.4273386
			c1.6143227-0.3673322,3.2171803-0.7849967,4.8252497-1.1799235c0.2575302-0.063247,0.5412226-0.0644567,0.8140793-0.4682422
			C11.6448984,2.0559289,9.4450245,2.1054225,7.8996115,0.375c1.659955,0.1680751,3.3202629,0.3327751,4.9797201,0.5056372
			c0.8408575,0.0875908,1.6795197,0.1963288,2.5204926,0.2826834c0.3802433,0.0390452,0.5679016,0.1625472,0.6378078,0.6048803
			c0.1615944,1.0224445,0.5794868,1.7207513,1.7999344,1.9964788c6.2732658,1.41728,10.6551323,7.0665922,10.5506077,13.4301538
			c-0.1055107,6.4230747-4.7191563,11.9331284-11.0305004,13.1736584
			C9.3131809,31.9496841,1.8516672,26.030302,1.1176522,17.8555298c-0.2685284-2.9906244-0.455089-5.961442-0.5070279-8.9544849
			C0.5979346,8.1697149,0.772747,7.8944573,1.5625564,7.897994c0.7928509,0.003552,0.8635045,0.3661251,0.8551482,0.9939404
			c-0.0252411,1.8961496-0.0398803,3.7936506,0.0095072,5.6888494c0.0150037,0.5757475-0.2718196,1.0305481-0.3622212,1.555809
			c-0.4867775,2.82831,0.3598173,5.3597584,1.8055077,7.7123756c2.7945876,4.5477295,8.3073597,6.8680954,13.5109348,5.76371
			c5.3479137-1.1350193,9.395628-5.4841461,10.1168537-10.8702087c0.8652573-6.4617014-3.0909939-12.4435539-9.3697433-14.1670437
			c-1.3983688-0.3838458-1.6674328-0.2742729-2.0894356,1.0992012c-0.3690357,1.2010884-1.2777996,0.4456129-1.9179153,0.557652
			c-0.6536455,0.114409-0.4964104-0.5356693-0.4527082-0.8756971c0.1331711-1.0362339-0.3561506-1.1085925-1.1817913-0.9155025
			c-1.7103615,0.3999958-3.4318495,0.7528458-5.1510458,1.1142163C7.04565,5.6162529,6.7442169,5.6228228,6.3582015,5.6641402z"/>
		<path class="st18" d="M14.8087921,9.3279123c-1.116271,0-2.2330017-0.0194798-3.3486614,0.0066938
			c-0.7730207,0.0181341-0.7990208-0.3345966-0.4635773-0.8581886c0.178586-0.2787542,0.4096422-0.5419011,0.6677723-0.7487574
			c1.64785-1.3205323,4.7300911-1.3066654,6.3618298,0.0244465c0.2316742,0.1889915,0.4463654,0.4203129,0.6056919,0.6720552
			c0.3428249,0.5416746,0.3856392,0.9407721-0.4744434,0.9159336c-1.1153469-0.0322113-2.2323313-0.007864-3.348609-0.007864
			C14.808795,9.3307915,14.808795,9.3293514,14.8087921,9.3279123z"/>
	</g>
</g>
</svg>
